# xmcd
#
# Track frame offsets:
#	150
#	13120
#	26515
#	37222
#	57010
#	66482
#	80252
#	95507
#	107047
#	122425
#	133147
#	145220
#	156477
#	164997
#	174695
#	184325
#	197397
#	205562
#	216735
#	225332
#
# Disc length: 3151
#
# Revision: 3
# Processed by: cddbd v1.5.1PL0 Copyright (c) Steve Scherf et al.
# Submitted via: DiscPlay 4.0.3
# Normalized: r1:TSWAP
#
DISCID=280c4d14
DTITLE=Div. Kunstnere - The Country box Vol. 2 [CD 2)
DYEAR=1900
DGENRE=
TTITLE0=Johny Cash - Folsom Prison
TTITLE1=K. Rogers and The first edition - Shine On Ruby mountain
TTITLE2=Freddy Fender - A man can cry
TTITLE3=Skeeter Davis - I can't stop loving you
TTITLE4=Hank Locklin - Send me the pillow
TTITLE5=Willie Nelson - You'll always have someone
TTITLE6=K. Rogers - For the good times
TTITLE7=Patsy Cline - The heart you break ..
TTITLE8=ET Conely - The night they drove old Dixie down
TTITLE9=Nashville Superstars - Kansas City
TTITLE10=Ricky Nelson - Fools rush in
TTITLE11=Anne Murray - Last thing on my mind
TTITLE12=Waylon Jennings - Abilene
TTITLE13=Jean Sheppard - I just want to sing my song
TTITLE14=Ned Miller - From a jack to a king
TTITLE15=Leadbelly - Goodnight Irene
TTITLE16=J. Cash - Guess things happen that way
TTITLE17=Wanda Jackson - Tears will be the chaser
TTITLE18=The harden trio - Sneaking across the border
TTITLE19=Jimmy Newman - A lovely work af art
EXTD=
EXTT0=
EXTT1=
EXTT2=
EXTT3=
EXTT4=
EXTT5=
EXTT6=
EXTT7=
EXTT8=
EXTT9=
EXTT10=
EXTT11=
EXTT12=
EXTT13=
EXTT14=
EXTT15=
EXTT16=
EXTT17=
EXTT18=
EXTT19=
PLAYORDER=
